<?xml version="1.0" encoding="iso-8859-1"?>
<!-- Generator: Adobe Illustrator 19.0.0, SVG Export Plug-In . SVG Version: 6.00 Build 0)  -->
<svg version="1.1" id="Layer_1" xmlns="http://www.w3.org/2000/svg" xmlns:xlink="http://www.w3.org/1999/xlink" x="0px" y="0px"
	 viewBox="0 0 511.996 511.996" style="enable-background:new 0 0 511.996 511.996;" xml:space="preserve">
<path style="fill:#C70024;" d="M149.369,27.773c5.776,13.617,11.778,58.476-1.84,64.252c-13.617,5.776-41.697-29.72-47.473-43.337
	c-5.776-13.617,0.581-29.339,14.198-35.115S143.593,14.156,149.369,27.773z"/>
<path style="fill:#A5001E;" d="M120.346,44.237C115.33,32.41,119.469,19,129.564,11.894c-4.987-0.923-10.29-0.447-15.309,1.681
	c-13.618,5.776-19.975,21.497-14.199,35.114c5.776,13.618,33.856,49.112,47.473,43.337c2.823-1.197,4.793-4.092,6.106-8.023
	C140.108,75.029,124.49,54.005,120.346,44.237z"/>
<path style="fill:#C70024;" d="M497.63,222.124c-9.821,11.061-47.762,35.735-58.823,25.914s8.947-50.417,18.768-61.478
	c9.821-11.061,26.749-12.067,37.809-2.246C506.446,194.135,507.451,211.063,497.63,222.124z"/>
<path style="fill:#A5001E;" d="M477.865,182.108c1.4-1.577,2.947-2.941,4.598-4.107c-8.911-1.635-18.435,1.289-24.888,8.56
	c-9.821,11.061-29.828,51.658-18.768,61.478c4.702,4.175,14.265,2.105,24.458-2.492c-1.625-0.336-3.042-0.962-4.168-1.961
	C448.036,233.764,468.045,193.168,477.865,182.108z"/>
<path style="fill:#C70024;" d="M56.482,138.052c8.368,12.198,23.169,54.968,10.971,63.336s-46.774-20.835-55.142-33.033
	s-5.263-28.868,6.933-37.236S48.114,125.855,56.482,138.052z"/>
<path style="fill:#A5001E;" d="M32.602,163.902c-8.303-12.102-5.306-28.606,6.656-37.035c-6.726-1.242-13.926,0.076-20.014,4.252
	c-12.198,8.368-15.302,25.04-6.933,37.236c8.368,12.198,42.944,41.401,55.142,33.033c1.845-1.266,3.064-3.33,3.789-5.946
	C56.502,188.717,38.356,172.289,32.602,163.902z"/>
<path style="fill:#C70024;" d="M297.833,61.391c0.597,14.78-9.625,58.869-24.404,59.466c-14.78,0.597-28.521-42.526-29.118-57.306
	c-0.597-14.78,10.901-27.244,25.681-27.842C284.771,35.114,297.236,46.612,297.833,61.391z"/>
<path style="fill:#A5001E;" d="M275.929,36.136c-1.919-0.352-3.906-0.507-5.938-0.424c-14.78,0.597-26.277,13.062-25.681,27.841
	c0.597,14.78,14.338,57.902,29.118,57.306c4.152-0.167,7.945-3.769,11.239-9.189c-10.914-11.517-19.595-40.89-20.066-52.57
	C264.22,49.677,268.76,41.2,275.929,36.136z"/>
<path style="fill:#C70024;" d="M406.1,81.52c-0.847,14.767-15.316,57.651-30.084,56.804c-14.767-0.846-24.241-45.103-23.394-59.87
	c0.847-14.767,13.504-26.052,28.272-25.206C395.661,54.094,406.946,66.752,406.1,81.52z"/>
<path style="fill:#A5001E;" d="M372.913,74.001c0.486-8.477,4.869-15.802,11.305-20.347c-1.086-0.199-2.192-0.341-3.324-0.406
	c-14.767-0.846-27.425,10.438-28.272,25.206c-0.846,14.767,8.626,59.024,23.394,59.87c4.375,0.251,8.722-3.336,12.698-8.891
	C378.399,117.71,372.222,86.046,372.913,74.001z"/>
<path d="M511.934,202.302c-0.545-9.17-4.628-17.579-11.498-23.678c-6.3-5.594-14.405-8.674-22.824-8.674
	c-9.829,0-19.206,4.212-25.727,11.559c-5.966,6.721-13.558,20.929-18.637,33.554c-6.301,15.664-4.9,29.601-4.9,29.601
	c-17.404,10.672-50.94,24.079-107.531,21.586l-0.019-0.135c22.09-30.137,44.194-69.995,58.526-120.449
	c7.471-1.401,14.509-8.332,20.964-20.696c1.945-3.725,0.501-8.322-3.223-10.267c-3.728-1.946-8.323-0.502-10.267,3.223
	c-5.537,10.606-9.572,12.795-10.341,12.801c-0.968-0.118-5.94-4.013-10.861-19.808c-3.814-12.24-5.728-25.898-5.377-32.031
	c0.293-5.113,2.56-9.805,6.382-13.214c3.824-3.407,8.757-5.107,13.856-4.831c10.555,0.606,18.651,9.686,18.046,20.241
	c-0.24,4.195,2.965,7.792,7.162,8.031c4.177,0.243,7.792-2.966,8.031-7.162c1.085-18.931-13.434-35.217-32.367-36.303
	c-9.18-0.529-18,2.553-24.855,8.665c-6.856,6.113-10.922,14.531-11.447,23.701c-0.515,8.971,2.085,24.904,6.181,37.881
	c3.759,11.909,8.314,20.299,13.608,25.136c-19.974,70.642-55.776,119.635-84.227,149.558c-22.979,24.166-44.485,39.632-56.993,47.64
	c-2.997-19.862-6.791-41.622-11.577-64.664l0.12-0.331c64.661-67.039,69.38-127.685,69.028-147.021
	c17.793-10.373,24.737-53.565,24.271-65.133c-0.766-18.973-16.609-33.744-35.751-32.976c-9.179,0.37-17.664,4.292-23.893,11.046
	c-6.228,6.752-9.453,15.526-9.083,24.706c0.46,11.38,10.779,53.681,29.211,62.851c0.07,6.753-0.592,20.051-5.384,37.503
	c-6.06,22.072-20.084,55.195-52.471,91.085c-11.423-50.816-27.674-106.773-50.805-161.763c12.113-16.553,3.564-58.243-0.886-68.733
	c-7.405-17.458-27.631-25.64-45.09-18.232c-3.868,1.64-5.675,6.107-4.034,9.976c1.64,3.868,6.109,5.675,9.976,4.034
	c9.734-4.129,21.01,0.432,25.138,10.166c2.398,5.654,5.2,19.158,5.737,31.969c0.693,16.529-2.676,21.873-3.54,22.306
	c-0.917,0.328-7.102-0.968-18.506-12.957c-8.836-9.29-16.596-20.69-18.995-26.344c-1.64-3.869-6.108-5.676-9.975-4.035
	c-3.868,1.64-5.675,6.107-4.035,9.975c3.508,8.273,12.89,21.411,22.306,31.235c10.754,11.222,20.204,17.015,28.213,17.346
	c18.642,44.451,32.724,89.564,43.371,131.986c-19.98-0.539-72.452-4.773-108.884-33.167c2.443-6.948,2.132-16.869-0.984-29.7
	c-3.212-13.224-9.234-28.202-14.317-35.613c-6.417-9.354-17.028-14.938-28.383-14.938c-6.958,0-13.677,2.087-19.432,6.034
	c-7.574,5.196-12.672,13.033-14.354,22.064c-1.681,9.03,0.255,18.176,5.451,25.752c7.926,11.552,37.312,37.821,56.03,37.821
	c1.822,0,3.535-0.232,5.131-0.688c17.789,14.312,40.875,24.936,68.415,31.267c24.44,5.618,45.714,6.424,55.054,6.467
	c10.101,42.871,16.709,82.463,21.009,115.099c10.601,80.456,9.916,137.247,9.909,137.811c-0.061,4.202,3.295,7.658,7.497,7.719
	c0.038,0,0.075,0.001,0.113,0.001c4.15,0,7.545-3.334,7.606-7.497c0.009-0.572,0.719-58.246-9.997-139.73
	c-0.27-2.049-0.551-4.132-0.838-6.235c11.719-6.965,37.212-23.823,65.17-53.112c5.865-6.144,12.029-13.068,18.304-20.77
	c8.691,0.649,16.94,0.961,24.732,0.961c53.96,0,86.749-14.292,104.009-25.312c2.288,0.953,4.884,1.449,7.79,1.449
	c18.706,0,49.015-21.346,57.35-30.733C509.42,220.306,512.479,211.472,511.934,202.302z M251.914,63.245
	c-0.207-5.117,1.591-10.008,5.064-13.773c3.473-3.764,8.202-5.951,13.321-6.157c0.265-0.011,0.529-0.016,0.791-0.016
	c10.316,0,18.723,8.082,19.139,18.4c0.248,6.137-1.898,19.761-5.918,31.935c-5.184,15.704-10.22,19.517-11.189,19.622
	c-0.98-0.028-6.306-3.429-12.737-18.657C255.397,82.788,252.162,69.382,251.914,63.245z M63.151,195.111
	c-0.002,0.002-0.277,0.151-1.084,0.151c-10.378,0-36.037-20.362-43.481-31.213c-2.896-4.222-3.977-9.321-3.04-14.357
	c0.938-5.035,3.78-9.404,8.004-12.3c3.209-2.202,6.953-3.365,10.823-3.365c6.337,0,12.256,3.114,15.834,8.329
	c3.475,5.064,8.904,17.74,11.979,30.187C66.151,188.605,63.912,194.514,63.151,195.111z M491.942,217.072
	c-7.295,8.219-33.734,25.619-45.971,25.619c-1.365,0-1.999-0.256-2.109-0.341c-0.686-0.693-2.172-6.832,3.762-22.275
	c4.598-11.968,11.563-23.87,15.641-28.464c3.636-4.095,8.866-6.444,14.348-6.444c4.69,0,9.208,1.718,12.72,4.836
	c3.83,3.401,6.107,8.089,6.41,13.202C497.047,208.318,495.342,213.243,491.942,217.072z"/>
<g>
</g>
<g>
</g>
<g>
</g>
<g>
</g>
<g>
</g>
<g>
</g>
<g>
</g>
<g>
</g>
<g>
</g>
<g>
</g>
<g>
</g>
<g>
</g>
<g>
</g>
<g>
</g>
<g>
</g>
</svg>
